<?xml version="1.0" standalone="no"?><!DOCTYPE svg PUBLIC "-//W3C//DTD SVG 1.1//EN" "http://www.w3.org/Graphics/SVG/1.1/DTD/svg11.dtd"><svg t="1502688807561" class="icon" style="" viewBox="0 0 1024 1024" version="1.1" xmlns="http://www.w3.org/2000/svg" p-id="5828" xmlns:xlink="http://www.w3.org/1999/xlink" width="32" height="32"><defs><style type="text/css"></style></defs><path d="M829.868263 466.759315 572.96272 199.584459c-15.971379-16.605077-37.316419-25.722543-60.185497-25.722543-22.870294 0-44.215335 9.117467-60.157522 25.722543L195.684966 466.759315c-26.514362 27.609042-23.101393 51.430491-18.708078 61.381131 3.124703 7.086227 13.65309 26.499766 44.041402 26.499766l37.647256 0 0 205.546815c0 46.662552 33.542206 90.603 81.227676 90.603l109.354866 0L449.248087 633.261333c0-23.331276-3.528518-36.321477 20.322123-36.321477l86.427405 0c23.849425 0 20.306311 12.991417 20.306311 36.321477l0 217.52991 109.354866 0c47.670874 0 81.214296-43.940448 81.214296-90.603L766.873088 554.640212l37.661851 0c30.388312 0 40.930079-19.413539 44.041402-26.499766C852.969656 518.18859 856.381408 494.367141 829.868263 466.759315L829.868263 466.759315zM804.533723 512.327188" p-id="5829" fill="#f45a6f"></path></svg>