<?xml version="1.0" standalone="no"?><!DOCTYPE svg PUBLIC "-//W3C//DTD SVG 1.1//EN" "http://www.w3.org/Graphics/SVG/1.1/DTD/svg11.dtd"><svg t="1502689510360" class="icon" style="" viewBox="0 0 1024 1024" version="1.1" xmlns="http://www.w3.org/2000/svg" p-id="13001" xmlns:xlink="http://www.w3.org/1999/xlink" width="32" height="32"><defs><style type="text/css"></style></defs><path d="M510.739798 76.746942c-246.451018 0-446.229041 172.385139-446.22904 385.011794 0 125.804241 69.948095 237.540068 178.125886 307.774688-0.512676 57.07081 0 168.898735 0 168.898735s108.159372-70.292949 160.979368-102.84125c34.32169 7.30436 70.203922 11.181667 107.12481 11.181667 246.451018 0 446.231087-172.387185 446.231087-385.01384 0-212.625632-199.781092-385.011794-446.232111-385.011794z m-213.932393 443.857017c-32.81743 0-59.430554-26.326599-59.430555-58.815548 0-32.487925 26.612101-58.843176 59.430555-58.843176s59.415204 26.356274 59.415204 58.843176c0 32.488948-26.596751 58.815547-59.415204 58.815548z m222.995816 0c-32.834826 0-59.431577-26.326599-59.431577-58.815548 0-32.487925 26.596751-58.843176 59.431577-58.843176 32.80208 0 59.415204 26.356274 59.415205 58.843176-0.001023 32.488948-26.613124 58.815547-59.415205 58.815548z m222.978421 0c-32.803103 0-59.415204-26.326599-59.415204-58.815548 0-32.487925 26.612101-58.843176 59.415204-58.843176 32.818453 0 59.430554 26.356274 59.430554 58.843176 0 32.488948-26.611078 58.815547-59.430554 58.815548z" fill="#f45a6f" p-id="13002"></path></svg>