<?xml version="1.0" encoding="utf-8"?>
<!-- Generated by IcoMoon.io -->
<svg version="1.1" xmlns="http://www.w3.org/2000/svg" xmlns:xlink="http://www.w3.org/1999/xlink" width="624" height="24" viewBox="0 0 624 24">
<svg id="icon-send" width="24" height="24" viewBox="0 0 24 24" x="0" y="0">
<path d="M2.010 21l20.99-9-20.99-9-0.010 7 15 2-15 2z"></path>
</svg>
<svg id="icon-mark" width="24" height="24" viewBox="0 0 24 24" x="40" y="0">
<path d="M17 3h-10c-1.1 0-1.99 0.9-1.99 2l-0.010 16 7-3 7 3v-16c0-1.1-0.9-2-2-2z"></path>
</svg>
<svg id="icon-person" width="24" height="24" viewBox="0 0 24 24" x="80" y="0">
<path d="M12 12c2.21 0 4-1.79 4-4s-1.79-4-4-4-4 1.79-4 4 1.79 4 4 4zM12 14c-2.67 0-8 1.34-8 4v2h16v-2c0-2.66-5.33-4-8-4z"></path>
</svg>
<svg id="icon-back" width="24" height="24" viewBox="0 0 24 24" x="120" y="0">
<path d="M20 11h-12.17l5.59-5.59-1.42-1.41-8 8 8 8 1.41-1.41-5.58-5.59h12.17v-2z"></path>
</svg>
<svg id="icon-message" width="24" height="24" viewBox="0 0 24 24" x="160" y="0">
<path d="M20 2h-16c-1.1 0-1.99 0.9-1.99 2l-0.010 18 4-4h14c1.1 0 2-0.9 2-2v-12c0-1.1-0.9-2-2-2zM18 14h-12v-2h12v2zM18 11h-12v-2h12v2zM18 8h-12v-2h12v2z"></path>
</svg>
<svg id="icon-home" width="24" height="24" viewBox="0 0 24 24" x="200" y="0">
<path d="M10 20v-6h4v6h5v-8h3l-10-9-10 9h3v8z"></path>
</svg>
</svg>
